<?xml version="1.0" encoding="UTF-8"?>
<svg width="32px" height="24px" viewBox="0 0 32 24" version="1.1" xmlns="http://www.w3.org/2000/svg" xmlns:xlink="http://www.w3.org/1999/xlink">
    <!-- Generator: Sketch 49.1 (51147) - http://www.bohemiancoding.com/sketch -->
    <title>双引号</title>
    <desc>Created with Sketch.</desc>
    <defs></defs>
    <g id="Page-1" stroke="none" stroke-width="1" fill="none" fill-rule="evenodd">
        <g id="引导页-首页" transform="translate(-624.000000, -2681.000000)" fill="#D9E0F1">
            <g id="复用三连" transform="translate(0.000000, 2533.000000)">
                <g id="板块七">
                    <g id="双引号" transform="translate(624.000000, 148.000000)">
                        <path d="M0.0771556751,15.9571357 L0,16 C0.341084574,14.6511642 0.674417907,13.6511642 1,13 C1.32558209,12.3488358 3.99224876,8.01550248 9,0 L15,0 L9.32902288,10.3967914 C12.0500565,11.3565249 14,13.9505456 14,17 C14,20.8659932 10.8659932,24 7,24 C3.13400675,24 0,20.8659932 0,17 C0,16.6456109 0.0263353142,16.2973727 0.0771556751,15.9571357 Z" id="Combined-Shape"></path>
                        <path d="M17.0771557,15.9571357 L17,16 C17.3410846,14.6511642 17.6744179,13.6511642 18,13 C18.3255821,12.3488358 20.9922488,8.01550248 26,0 L32,0 L26.3290229,10.3967914 C29.0500565,11.3565249 31,13.9505456 31,17 C31,20.8659932 27.8659932,24 24,24 C20.1340068,24 17,20.8659932 17,17 C17,16.6456109 17.0263353,16.2973727 17.0771557,15.9571357 Z" id="Combined-Shape"></path>
                    </g>
                </g>
            </g>
        </g>
    </g>
</svg>